<svg xmlns="http://www.w3.org/2000/svg" viewBox="0 0 512 512">
  <rect width="512" height="512" fill="#820ad1" rx="64"/>
  <path fill="#fff" d="M152 187c10-11 26-17 39-17 30 0 51 22 55 56 1 11 1 26 1 44v67h-42v-49c0 0 0-42-1-50-1-34-21-56-53-56-9 10-14 22-15 41v61h-42v-76c0-2 0-5 0-8 0-5 0-10 1-16 1-9 2-17 6-25 9-18 29-30 49-30 1 0 1 0 2 0zm84 106c0-5 0-11 0-16v-90h-42c0 0 0 37 0 70v21c0 19 0 31 0 24-1 19-6 31-15 41-31 0-52-22-53-56-1-8-1-28-1-50v-50h-42v67c0 2 0 4 0 6 0 18 0 33 1 44 4 34 24 56 55 56 16 0 29-6 39-17 1 0 2 0 2 0 21 0 40-12 49-30 4-8 6-17 6-25z" transform="scale(2.5)"/>
</svg>