<?xml version="1.0" encoding="utf-8"?><!-- Uploaded to: SVG Repo, www.svgrepo.com, Generator: SVG Repo Mixer Tools -->
<svg width="800px" height="800px" viewBox="0 0 146 146" xmlns="http://www.w3.org/2000/svg"><title>001-business</title><rect x="0.5" y="0.5" width="145" height="145" fill="none"/><circle cx="4.6" cy="104.4" r="1.6" fill="#b8b9ba"/><path d="M16,112.34l2.19-1.15a0.16,0.16,0,0,1,.23.17L18,113.8l1.77,1.72a0.16,0.16,0,0,1-.09.27l-2.44.36-1.09,2.21a0.16,0.16,0,0,1-.29,0l-1.09-2.21-2.44-.36a0.16,0.16,0,0,1-.09-0.27L14,113.8l-0.42-2.43a0.16,0.16,0,0,1,.23-0.17Z" fill="#b8b9ba"/><path d="M127,77.2v9.6a0.8,0.8,0,0,1-.8.8H112.6V76.4h13.6A0.8,0.8,0,0,1,127,77.2Z" fill="#a8cbeb"/><path d="M112.6,105.2V87.6h13.6a0.8,0.8,0,0,0,.8-0.8V77.2a0.8,0.8,0,0,0-.8-0.8H112.6v-24H131a4.8,4.8,0,0,1,4.8,4.8V98.8c0,2.65-2.15,6.4-4.8,6.4H112.6Z" fill="#ffffff"/><path d="M99.8,76.4V87.6H26.2a0.8,0.8,0,0,1-.8-0.8V77.2a0.8,0.8,0,0,1,.8-0.8H99.8Z" fill="#a8cbeb"/><path d="M99.8,95.6v8H16.6a0.8,0.8,0,0,1-.8-0.8V55.42c0,1.71,2.07-3,4.62-3h79l0.4,12v12H26a0.62,0.62,0,0,0-.62.62V87a0.62,0.62,0,0,0,.62.62H99.8v8Z" fill="#ffffff"/><path d="M113.4,52.4H135a0.8,0.8,0,0,1,.8.8v49.6a0.8,0.8,0,0,1-.8.8H112.6" fill="none" stroke="#515f76" stroke-miterlimit="10" stroke-width="2.4"/><line x1="26.2" y1="60.25" x2="49.2" y2="60.25" fill="none" stroke="#515f76" stroke-linecap="round" stroke-miterlimit="10" stroke-width="2.4"/><line x1="26.4" y1="68.4" x2="67.8" y2="68.4" fill="none" stroke="#515f76" stroke-linecap="round" stroke-miterlimit="10" stroke-width="2.4"/><line x1="113.4" y1="95.6" x2="126.2" y2="95.6" fill="none" stroke="#515f76" stroke-linecap="round" stroke-miterlimit="10" stroke-width="2.4"/><line x1="26.2" y1="95.45" x2="34" y2="95.45" fill="none" stroke="#515f76" stroke-linecap="round" stroke-miterlimit="10" stroke-width="2.4"/><line x1="139.8" y1="42.8" x2="143" y2="46" fill="none" stroke="#b8b9ba" stroke-linecap="round" stroke-miterlimit="10" stroke-width="1.6"/><line x1="143" y1="42.8" x2="139.8" y2="46" fill="none" stroke="#b8b9ba" stroke-linecap="round" stroke-miterlimit="10" stroke-width="1.6"/><circle cx="143" cy="59.6" r="1.6" fill="#b8b9ba"/><circle cx="126.6" cy="40.8" r="2" fill="none" stroke="#b8b9ba" stroke-linecap="round" stroke-miterlimit="10" stroke-width="1.6"/><line x1="14.2" y1="38.4" x2="14.2" y2="44" fill="none" stroke="#ea9080" stroke-linecap="round" stroke-miterlimit="10" stroke-width="2.4"/><line x1="17" y1="41.2" x2="11.4" y2="41.2" fill="none" stroke="#ea9080" stroke-linecap="round" stroke-miterlimit="10" stroke-width="2.4"/><circle cx="7" cy="53.2" r="1.6" fill="#b8b9ba"/><circle cx="26.2" cy="38.8" r="1.6" fill="#b8b9ba"/><polygon points="99 53 95 53 95 84.56 95 104 99 104 99 84.56 99 53" fill="#c3c7cd"/><circle cx="119.8" cy="26.8" r="1.6" fill="#b8b9ba"/><path d="M99.8,103.6H16.6a0.8,0.8,0,0,1-.8-0.8V53.2a0.8,0.8,0,0,1,.8-0.8H99.4" fill="none" stroke="#515f76" stroke-miterlimit="10" stroke-width="2.4"/><polygon points="99 77 95 77 95 83.5 95 88 99 88 99 83.5 99 77" fill="#85bee1"/><line x1="60.6" y1="95.6" x2="99.8" y2="95.6" fill="none" stroke="#515f76" stroke-linecap="round" stroke-miterlimit="10" stroke-width="2.4"/><polygon points="112.6 118.8 107.8 130 104.6 130 99.8 118.8 112.6 118.8" fill="#ffffff"/><rect x="99.8" y="64.4" width="12.8" height="7.2" fill="#ea9080"/><polygon points="99.8 105.2 99.8 95.6 99.8 87.6 99.8 76.4 99.8 71.6 112.6 71.6 112.6 76.4 112.6 87.6 112.6 105.2 112.6 118.8 99.8 118.8 99.8 105.2" fill="#ea9080"/><path d="M112.6,18.8v4.8H99.8V18.8a3.2,3.2,0,0,1,3.2-3.2h6.4A3.2,3.2,0,0,1,112.6,18.8Z" fill="#ea9080"/><polygon points="112.6 50.8 112.6 64.4 99.8 64.4 99.8 50.8 99.8 23.6 111.8 23.6 112.6 23.6 112.6 50.8" fill="#ea9080"/><path d="M108.6,16.4h0V119.6h3.2V19.6A3.2,3.2,0,0,0,108.6,16.4Z" fill="#eeb8a9" opacity="0.8"/><path d="M93.4,43.6V25.2a0.8,0.8,0,0,1,.8-0.8h17.6" fill="none" stroke="#515f76" stroke-linecap="round" stroke-miterlimit="10" stroke-width="2.4"/><line x1="112.6" y1="71.6" x2="99.8" y2="71.6" fill="none" stroke="#515f76" stroke-miterlimit="10" stroke-width="2.4"/><line x1="99.8" y1="63.6" x2="112.6" y2="63.6" fill="none" stroke="#515f76" stroke-miterlimit="10" stroke-width="2.4"/><line x1="111.8" y1="118.8" x2="100.6" y2="118.8" fill="none" stroke="#515f76" stroke-linejoin="round" stroke-width="2.4"/><path d="M112.6,118.8l-4.87,11.12c-0.28.64-2.79,0.64-3.07,0L99.8,118.8V20.4a4.8,4.8,0,0,1,4.8-4.8h3.2a4.8,4.8,0,0,1,4.8,4.8v98.4Z" fill="none" stroke="#515f76" stroke-linecap="round" stroke-linejoin="round" stroke-width="2.4"/><circle cx="4.2" cy="32.8" r="2" fill="none" stroke="#b8b9ba" stroke-linecap="round" stroke-miterlimit="10" stroke-width="1.6"/></svg>